<?xml version="1.0" encoding="UTF-8" standalone="no"?>
<!DOCTYPE svg PUBLIC "-//W3C//DTD SVG 1.1//EN" "http://www.w3.org/Graphics/SVG/1.1/DTD/svg11.dtd">
<svg width="100%" height="100%" viewBox="0 0 931 152" version="1.1" xmlns="http://www.w3.org/2000/svg" xmlns:xlink="http://www.w3.org/1999/xlink" xml:space="preserve" xmlns:serif="http://www.serif.com/" style="fill-rule:evenodd;clip-rule:evenodd;stroke-linejoin:round;stroke-miterlimit:2;">
    <g transform="matrix(1,0,0,1,-54,-301)">
        <g id="clouds" transform="matrix(1,0,0,1,54,301)">
            <path d="M554.67,131.48C558.335,127.842 564.335,127.842 568,131.48C571.665,135.118 577.665,135.118 581.33,131.48L594.66,118.24C605.657,107.324 623.663,107.324 634.66,118.24L644.66,128.17C650.16,133.625 659.16,133.625 664.66,128.17C670.16,122.715 679.16,122.715 684.66,128.17L685.26,128.77C691.271,134.735 694.657,142.861 694.66,151.33L548,151.33L548,147.49C548,141.48 550.4,135.71 554.67,131.48ZM751,8.25C762.07,-2.75 779.93,-2.75 791,8.25L801,18.19C806.497,23.65 815.503,23.65 821,18.19C826.497,12.73 835.503,12.73 841,18.19C846.725,23.868 855.836,24.51 862.3,19.69L871,13.22C882.833,4.402 899.167,4.402 911,13.22L915.06,16.25C925.081,23.717 930.998,35.503 931,48L731,48C731,35.28 739.93,19.25 751,8.25ZM14.1,75.14L15,74.24C23.247,66.052 36.753,66.052 45,74.24C53.247,82.428 66.753,82.428 75,74.24L85,64.31C98.744,50.662 121.256,50.662 135,64.31L150,79.21C155.5,84.665 164.5,84.665 170,79.21C175.5,73.755 184.5,73.755 190,79.21C196.4,85.56 200,94.21 200,103.23L200,109L0,109C0,96.29 5.07,84.1 14.1,75.14Z" style="fill:white;fill-opacity:0.07;"/>
        </g>
    </g>
</svg>
