<?xml version="1.0" encoding="UTF-8" standalone="no"?>
<!DOCTYPE svg PUBLIC "-//W3C//DTD SVG 1.1//EN" "http://www.w3.org/Graphics/SVG/1.1/DTD/svg11.dtd">
<svg width="100%" height="100%" viewBox="0 0 904 350" version="1.1" xmlns="http://www.w3.org/2000/svg" xmlns:xlink="http://www.w3.org/1999/xlink" xml:space="preserve" xmlns:serif="http://www.serif.com/" style="fill-rule:evenodd;clip-rule:evenodd;stroke-linejoin:round;stroke-miterlimit:2;">
    <g transform="matrix(1,0,0,1,-94,-23)">
        <g id="stars" transform="matrix(1,0,0,1,94,23)">
            <circle id="l" cx="180" cy="102" r="40"/>
            <circle id="l1" serif:id="l" cx="180" cy="102" r="40" style="fill:rgb(210,241,254);"/>
            <circle cx="123" cy="255" r="3" style="fill:white;fill-opacity:0.4;"/>
            <circle cx="2" cy="234" r="2" style="fill:white;"/>
            <circle cx="33" cy="65" r="3" style="fill:white;"/>
            <circle cx="122" cy="2" r="2" style="fill:white;"/>
            <circle cx="72" cy="144" r="2" style="fill:white;"/>
            <circle cx="282" cy="224" r="2" style="fill:white;"/>
            <circle cx="373" cy="65" r="3" style="fill:white;fill-opacity:0.4;"/>
            <circle cx="433" cy="255" r="3" style="fill:white;"/>
            <g transform="matrix(0.707107,0.707107,-0.707107,0.707107,325.523,-145.38)">
                <path d="M373.25,325.25C375.993,325.25 378.25,322.993 378.25,320.25C378.25,317.507 375.993,315.25 373.25,315.25L298.25,315.25L298.25,325.25L373.25,325.25Z" style="fill:url(#_Linear1);"/>
            </g>
            <circle cx="363" cy="345" r="3" style="fill:white;"/>
            <circle cx="513" cy="115" r="3" style="fill:white;"/>
            <circle cx="723" cy="5" r="3" style="fill:white;fill-opacity:0.4;"/>
            <circle cx="422" cy="134" r="2" style="fill:white;"/>
            <circle cx="752" cy="204" r="2" style="fill:white;"/>
            <circle cx="672" cy="114" r="2" style="fill:white;"/>
            <circle cx="853" cy="255" r="3" style="fill:white;fill-opacity:0.4;"/>
            <circle cx="623" cy="225" r="3" style="fill:white;"/>
            <circle cx="823" cy="55" r="3" style="fill:white;"/>
            <circle cx="902" cy="144" r="2" style="fill:white;"/>
            <circle cx="552" cy="14" r="2" style="fill:white;"/>
        </g>
    </g>
    <defs>
        <linearGradient id="_Linear1" x1="0" y1="0" x2="1" y2="0" gradientUnits="userSpaceOnUse" gradientTransform="matrix(80,0,0,80,298.25,320.25)"><stop offset="0" style="stop-color:white;stop-opacity:0"/><stop offset="1" style="stop-color:white;stop-opacity:0.4"/></linearGradient>
    </defs>
</svg>
