<?xml version="1.0" encoding="UTF-8" standalone="no"?>
<!DOCTYPE svg PUBLIC "-//W3C//DTD SVG 1.1//EN" "http://www.w3.org/Graphics/SVG/1.1/DTD/svg11.dtd">
<svg width="100%" height="100%" viewBox="0 0 1024 356" version="1.1" xmlns="http://www.w3.org/2000/svg" xmlns:xlink="http://www.w3.org/1999/xlink" xml:space="preserve" xmlns:serif="http://www.serif.com/" style="fill-rule:evenodd;clip-rule:evenodd;stroke-linejoin:round;stroke-miterlimit:2;">
    <g transform="matrix(1,0,0,1,0,-636.58)">
        <g transform="matrix(1,0,0,1,0,550)">
            <g id="sand-middle">
                <path d="M1024,442L0,442L0,271.82C137.51,256.42 203.1,221.33 356.67,211.72C555.24,199.3 606.71,86.59 856.74,86.59C929.52,86.59 981.18,97.21 1024,112.27L1024,442Z" style="fill:url(#_Linear1);"/>
                <path d="M1024,112.21L1024,412L856.91,412C956.22,325.5 969.54,271.25 896.88,249.22C710.24,192.64 795.12,86.58 856.9,86.58C929.6,86.58 981.2,97.18 1023.99,112.21L1024,112.21Z" style="fill:url(#_Linear2);"/>
                <path d="M1024,285.32L1024,412L857,412C956.31,325.4 969.63,271.06 896.97,249L1024,285.32Z" style="fill:url(#_Linear3);"/>
            </g>
        </g>
    </g>
    <defs>
        <linearGradient id="_Linear1" x1="0" y1="0" x2="1" y2="0" gradientUnits="userSpaceOnUse" gradientTransform="matrix(3.9936,234.89,-234.89,3.9936,506.675,128.031)"><stop offset="0" style="stop-color:rgb(247,234,185);stop-opacity:1"/><stop offset="1" style="stop-color:rgb(229,118,94);stop-opacity:1"/></linearGradient>
        <linearGradient id="_Linear2" x1="0" y1="0" x2="1" y2="0" gradientUnits="userSpaceOnUse" gradientTransform="matrix(-59.335,306.253,-306.253,-59.335,1003.73,105.747)"><stop offset="0" style="stop-color:rgb(162,42,80);stop-opacity:1"/><stop offset="1" style="stop-color:rgb(238,117,102);stop-opacity:1"/></linearGradient>
        <linearGradient id="_Linear3" x1="0" y1="0" x2="1" y2="0" gradientUnits="userSpaceOnUse" gradientTransform="matrix(-41.1154,153.399,-153.399,-41.1154,1009.96,258.601)"><stop offset="0" style="stop-color:rgb(162,42,80);stop-opacity:1"/><stop offset="1" style="stop-color:rgb(238,117,102);stop-opacity:1"/></linearGradient>
    </defs>
</svg>
