<?xml version="1.0" encoding="UTF-8" standalone="no"?>
<!DOCTYPE svg PUBLIC "-//W3C//DTD SVG 1.1//EN" "http://www.w3.org/Graphics/SVG/1.1/DTD/svg11.dtd">
<svg width="100%" height="100%" viewBox="0 0 984 266" version="1.1" xmlns="http://www.w3.org/2000/svg" xmlns:xlink="http://www.w3.org/1999/xlink" xml:space="preserve" xmlns:serif="http://www.serif.com/" style="fill-rule:evenodd;clip-rule:evenodd;stroke-linejoin:round;stroke-miterlimit:2;">
    <g transform="matrix(1,0,0,1,-14,-23)">
        <g id="stars" transform="matrix(1,0,0,1,14,23)">
            <g opacity="0.3">
                <circle cx="203" cy="255" r="3" style="fill:white;fill-opacity:0.4;"/>
                <circle cx="82" cy="234" r="2" style="fill:white;"/>
                <circle cx="22" cy="264" r="2" style="fill:white;fill-opacity:0.4;"/>
                <circle cx="113" cy="65" r="3" style="fill:white;"/>
                <circle cx="202" cy="2" r="2" style="fill:white;"/>
                <circle cx="2" cy="114" r="2" style="fill:white;"/>
                <circle cx="152" cy="144" r="2" style="fill:white;"/>
                <circle cx="362" cy="224" r="2" style="fill:white;"/>
                <circle cx="453" cy="65" r="3" style="fill:white;fill-opacity:0.4;"/>
                <circle cx="513" cy="255" r="3" style="fill:white;"/>
                <circle cx="593" cy="115" r="3" style="fill:white;"/>
                <circle cx="803" cy="5" r="3" style="fill:white;fill-opacity:0.4;"/>
                <circle cx="502" cy="134" r="2" style="fill:white;"/>
                <circle cx="832" cy="204" r="2" style="fill:white;"/>
                <circle cx="752" cy="114" r="2" style="fill:white;"/>
                <circle cx="933" cy="255" r="3" style="fill:white;fill-opacity:0.4;"/>
                <circle cx="703" cy="225" r="3" style="fill:white;"/>
                <circle cx="903" cy="55" r="3" style="fill:white;"/>
                <circle cx="982" cy="144" r="2" style="fill:white;"/>
                <circle cx="632" cy="14" r="2" style="fill:white;"/>
            </g>
        </g>
    </g>
</svg>
