<?xml version="1.0" encoding="UTF-8" standalone="no"?>
<!DOCTYPE svg PUBLIC "-//W3C//DTD SVG 1.1//EN" "http://www.w3.org/Graphics/SVG/1.1/DTD/svg11.dtd">
<svg width="100%" height="100%" viewBox="0 0 990 361" version="1.1" xmlns="http://www.w3.org/2000/svg" xmlns:xlink="http://www.w3.org/1999/xlink" xml:space="preserve" xmlns:serif="http://www.serif.com/" style="fill-rule:evenodd;clip-rule:evenodd;stroke-linejoin:round;stroke-miterlimit:2;">
    <g transform="matrix(1,0,0,1,-34,-529.934)">
        <g id="sand-back">
            <g id="sand-back1" serif:id="sand-back">
                <path d="M783,593.73C775.445,588.074 770.992,579.167 771,569.73C771,559.93 775.72,551.21 783,545.73C777.98,552.42 775,560.73 775,569.73C775,578.74 777.98,587.05 783,593.73Z" style="fill:rgb(19,79,78);"/>
                <g transform="matrix(-1,0,0,1,876,532)">
                    <path d="M24,66.73C16.445,61.074 11.992,52.167 12,42.73C12,32.93 16.72,24.21 24,18.73C18.98,25.42 16,33.73 16,42.73C16,51.74 18.98,60.05 24,66.73Z" style="fill:rgb(19,79,78);"/>
                    <path d="M36,22.4L32.04,18.42C30.302,16.677 27.524,16.464 25.54,17.92C25.493,17.706 25.469,17.488 25.469,17.269C25.469,15.623 26.823,14.269 28.469,14.269C28.729,14.269 28.988,14.303 29.24,14.37L37.94,16.7C41.428,17.633 43.873,20.817 43.873,24.428C43.873,25.128 43.781,25.824 43.6,26.5L42.6,24.77C42.336,24.312 41.9,23.978 41.39,23.84L36,22.4ZM30.62,19.84L37,26.2C38.502,27.7 39.346,29.738 39.346,31.86C39.346,33.982 38.502,36.02 37,37.52L37,35.52C36.998,34.986 36.782,34.474 36.4,34.1L26.39,24.08C25.873,23.525 25.585,22.794 25.585,22.035C25.585,20.389 26.939,19.035 28.585,19.035C29.344,19.035 30.075,19.323 30.63,19.84L30.62,19.84ZM14.21,9.8L10.27,5.86C9.894,5.482 9.383,5.27 8.85,5.27L6.85,5.27C8.35,3.768 10.388,2.924 12.51,2.924C14.632,2.924 16.67,3.768 18.17,5.27L24.53,11.64C25.091,12.202 25.407,12.965 25.407,13.759C25.407,15.065 24.555,16.227 23.31,16.62C23.575,14.178 22.003,11.884 19.63,11.25L14.21,9.8ZM19.11,13.19C20.419,13.54 21.337,14.735 21.337,16.09C21.337,17.737 19.982,19.092 18.335,19.092C18.073,19.092 17.813,19.058 17.56,18.99L3.87,15.31C3.357,15.172 2.81,15.244 2.35,15.51L0.62,16.51C1.759,12.273 6.182,9.722 10.42,10.86L19.12,13.19L19.11,13.19Z" style="fill:rgb(19,79,78);"/>
                </g>
                <g id="sand-back2" serif:id="sand-back" transform="matrix(1,0,0,1,0,245)">
                    <path d="M1024,423.16L1024,645L58.09,645C25.97,569.83 25.97,521.16 58.09,499C106.26,465.76 185.26,434.75 351.42,435C517.59,435.25 598.09,330 764.75,330C882.08,330 948.68,385.8 1024,423.16Z" style="fill:url(#_Linear1);"/>
                </g>
                <path d="M795,549.4L791.04,545.42C789.302,543.677 786.524,543.464 784.54,544.92C784.493,544.706 784.469,544.488 784.469,544.269C784.469,542.623 785.823,541.269 787.469,541.269C787.729,541.269 787.988,541.303 788.24,541.37L796.94,543.7C800.428,544.633 802.873,547.817 802.873,551.428C802.873,552.128 802.781,552.824 802.6,553.5L801.6,551.77C801.336,551.312 800.9,550.978 800.39,550.84L795,549.4ZM789.62,546.84L795.99,553.2C797.492,554.7 798.336,556.738 798.336,558.86C798.336,560.982 797.492,563.02 795.99,564.52L795.99,562.52C795.988,561.986 795.772,561.474 795.39,561.1L785.38,551.08C784.863,550.525 784.575,549.794 784.575,549.035C784.575,547.389 785.929,546.035 787.575,546.035C788.334,546.035 789.065,546.323 789.62,546.84ZM773.21,536.81L769.27,532.87C768.894,532.492 768.383,532.28 767.85,532.28L765.85,532.28C767.35,530.778 769.388,529.934 771.51,529.934C773.632,529.934 775.67,530.778 777.17,532.28L783.53,538.65C784.091,539.212 784.407,539.975 784.407,540.769C784.407,542.075 783.555,543.237 782.31,543.63C782.575,541.188 781.003,538.894 778.63,538.26L773.21,536.81ZM778.11,540.2C779.419,540.55 780.337,541.745 780.337,543.1C780.337,544.747 778.982,546.102 777.335,546.102C777.073,546.102 776.813,546.068 776.56,546L762.87,542.32C762.357,542.182 761.81,542.254 761.35,542.52L759.62,543.52C760.759,539.283 765.182,536.732 769.42,537.87L778.12,540.2L778.11,540.2Z" style="fill:rgb(19,79,78);"/>
            </g>
            <g id="mirage">
                <path d="M782,550C782,548.344 780.656,547 779,547L725,547C723.344,547 722,548.344 722,550C722,551.656 723.344,553 725,553L779,553C780.656,553 782,551.656 782,550Z" style="fill:white;fill-opacity:0.4;"/>
                <path d="M902,568C902,566.344 900.656,565 899,565L845,565C843.344,565 842,566.344 842,568C842,569.656 843.344,571 845,571L899,571C900.656,571 902,569.656 902,568Z" style="fill:white;fill-opacity:0.4;"/>
                <path d="M802,562C802,560.344 800.656,559 799,559L765,559C763.344,559 762,560.344 762,562C762,563.656 763.344,565 765,565L799,565C800.656,565 802,563.656 802,562Z" style="fill:white;fill-opacity:0.4;"/>
                <path d="M912,556C912,554.344 910.656,553 909,553L875,553C873.344,553 872,554.344 872,556C872,557.656 873.344,559 875,559L909,559C910.656,559 912,557.656 912,556Z" style="fill:white;fill-opacity:0.4;"/>
                <path d="M851,550C851,548.344 849.656,547 848,547L814,547C812.344,547 811,548.344 811,550C811,551.656 812.344,553 814,553L848,553C849.656,553 851,551.656 851,550Z" style="fill:white;fill-opacity:0.4;"/>
            </g>
        </g>
    </g>
    <defs>
        <linearGradient id="_Linear1" x1="0" y1="0" x2="1" y2="0" gradientUnits="userSpaceOnUse" gradientTransform="matrix(-47.619,247.149,-247.149,-47.619,576.619,271.788)"><stop offset="0" style="stop-color:white;stop-opacity:1"/><stop offset="0.28" style="stop-color:rgb(248,230,179);stop-opacity:1"/><stop offset="1" style="stop-color:rgb(213,129,47);stop-opacity:1"/></linearGradient>
    </defs>
</svg>
