<?xml version="1.0" encoding="UTF-8" standalone="no"?>
<!DOCTYPE svg PUBLIC "-//W3C//DTD SVG 1.1//EN" "http://www.w3.org/Graphics/SVG/1.1/DTD/svg11.dtd">
<svg width="100%" height="100%" viewBox="0 0 940 323" version="1.1" xmlns="http://www.w3.org/2000/svg" xmlns:xlink="http://www.w3.org/1999/xlink" xml:space="preserve" xmlns:serif="http://www.serif.com/" style="fill-rule:evenodd;clip-rule:evenodd;stroke-linejoin:round;stroke-miterlimit:2;">
    <g transform="matrix(1,0,0,1,-84,-95.0534)">
        <g id="clouds">
            <path d="M1024,378.13L1024,417.5L790,417.5C789.998,398.434 797.613,380.136 811.14,366.7L812.5,365.36C824.87,353.075 845.13,353.075 857.5,365.36C869.87,377.645 890.13,377.645 902.5,365.36L917.5,350.46C938.114,329.982 971.886,329.982 992.5,350.46L1015,372.81C1017.51,375.307 1020.6,377.136 1024,378.13Z" style="fill:white;fill-opacity:0.15;"/>
            <path d="M395.67,116.48C399.335,112.842 405.335,112.842 409,116.48C412.665,120.118 418.665,120.118 422.33,116.48L435.66,103.24C446.657,92.324 464.663,92.324 475.66,103.24L485.66,113.17C491.16,118.625 500.16,118.625 505.66,113.17C511.16,107.715 520.16,107.715 525.66,113.17L526.26,113.77C532.271,119.735 535.657,127.861 535.66,136.33L389,136.33L389,132.49C389,126.48 391.4,120.71 395.67,116.48ZM98.1,249.1L104,243.24C115.07,232.24 132.93,232.24 144,243.24L154,253.18C159.497,258.64 168.503,258.64 174,253.18C179.497,247.72 188.503,247.72 194,253.18C199.725,258.858 208.836,259.5 215.3,254.68L224,248.21C235.833,239.392 252.167,239.392 264,248.21L268.06,251.24C278.084,258.709 284.002,270.499 284,283L84,283C83.999,270.281 89.078,258.075 98.1,249.11L98.1,249.1Z" style="fill:white;fill-opacity:0.15;"/>
        </g>
    </g>
</svg>
