<?xml version="1.0" encoding="UTF-8" standalone="no"?>
<!DOCTYPE svg PUBLIC "-//W3C//DTD SVG 1.1//EN" "http://www.w3.org/Graphics/SVG/1.1/DTD/svg11.dtd">
<svg width="100%" height="100%" viewBox="0 0 1024 458" version="1.1" xmlns="http://www.w3.org/2000/svg" xmlns:xlink="http://www.w3.org/1999/xlink" xml:space="preserve" xmlns:serif="http://www.serif.com/" style="fill-rule:evenodd;clip-rule:evenodd;stroke-linejoin:round;stroke-miterlimit:2;">
    <g transform="matrix(1,0,0,1,0,-565)">
        <g transform="matrix(1,0,0,1,0,245)">
            <g id="sand-front">
                <g id="sand-front1" serif:id="sand-front">
                    <path d="M1024,778L0,778L0,398.62C75.53,363.05 136.43,320 283,320C394.86,320 641.86,389.82 1024,529.47L1024,778Z" style="fill:url(#_Linear1);"/>
                    <path d="M0,778L0,398.62C75.53,363.05 136.43,320 283,320C354.14,320 368.96,346.04 315.5,402C236,485.22 595.2,404.01 651.5,533.5C677.5,593.3 581.67,674.8 364.02,778L0,778Z" style="fill:url(#_Linear2);"/>
                    <path d="M364.02,778L0,778L0,638.4L315.5,402C236,485.22 595.2,404.01 651.5,533.5C677.5,593.3 581.67,674.8 364.02,778Z" style="fill:url(#_Linear3);"/>
                </g>
                <g id="footprints" transform="matrix(1,0,0,1,0,-245)">
                    <path d="M702.69,960.64C703.497,961.45 703.951,962.547 703.951,963.691C703.951,965.29 703.064,966.763 701.65,967.51C699.39,968.71 697.96,969.61 697.38,970.18C696.87,970.7 696.21,971.58 695.41,972.8C694.758,973.795 693.646,974.395 692.457,974.395C691.521,974.395 690.622,974.023 689.96,973.36C689.301,972.699 688.931,971.802 688.931,970.869C688.931,969.682 689.529,968.572 690.52,967.92C691.75,967.12 692.62,966.46 693.14,965.94C693.72,965.36 694.61,963.94 695.81,961.67C696.557,960.256 698.03,959.369 699.629,959.369C700.778,959.369 701.88,959.826 702.69,960.64Z" style="fill:white;fill-opacity:0.6;"/>
                    <g transform="matrix(0.707107,0.707107,-0.707107,0.707107,891.721,-210.804)">
                        <path d="M700.32,962C700.321,962 700.323,962 700.324,962C702.694,962 704.644,963.95 704.644,966.32C704.644,966.754 704.579,967.186 704.45,967.6C703.7,970.05 703.32,971.68 703.32,972.5C703.32,973.23 703.47,974.31 703.77,975.75C703.819,975.987 703.844,976.228 703.844,976.47C703.844,978.404 702.254,979.997 700.32,980C698.386,979.997 696.796,978.404 696.796,976.47C696.796,976.228 696.821,975.987 696.87,975.75C697.17,974.31 697.32,973.23 697.32,972.5C697.32,971.68 696.95,970.05 696.19,967.6C696.061,967.186 695.996,966.754 695.996,966.32C695.996,963.95 697.946,962 700.316,962C700.317,962 700.319,962 700.32,962Z" style="fill:url(#_Linear4);"/>
                    </g>
                    <g transform="matrix(0.965926,-0.258819,0.258819,0.965926,715.269,944.256)">
                        <path d="M16.65,3.9C17.46,4.71 17.915,5.809 17.915,6.954C17.915,8.55 17.03,10.022 15.62,10.77C13.35,11.97 11.92,12.87 11.35,13.44C10.83,13.96 10.17,14.84 9.37,16.06C8.718,17.051 7.608,17.649 6.421,17.649C5.488,17.649 4.591,17.279 3.93,16.62C3.271,15.959 2.901,15.062 2.901,14.129C2.901,12.942 3.499,11.832 4.49,11.18C5.72,10.38 6.59,9.72 7.11,9.2C7.69,8.62 8.58,7.2 9.78,4.93C10.528,3.52 12,2.635 13.596,2.635C14.741,2.635 15.84,3.09 16.65,3.9Z" style="fill:white;fill-opacity:0.6;"/>
                        <g transform="matrix(0.707107,0.707107,-0.707107,0.707107,13.8017,-5.32028)">
                            <path d="M13.32,5C13.321,5 13.323,5 13.324,5C15.694,5 17.644,6.95 17.644,9.32C17.644,9.754 17.579,10.186 17.45,10.6C16.7,13.05 16.32,14.68 16.32,15.5C16.32,16.23 16.47,17.31 16.77,18.75C16.819,18.987 16.844,19.228 16.844,19.47C16.844,21.404 15.254,22.997 13.32,23C11.386,22.997 9.796,21.404 9.796,19.47C9.796,19.228 9.821,18.987 9.87,18.75C10.17,17.31 10.32,16.23 10.32,15.5C10.32,14.68 9.95,13.05 9.19,10.6C9.061,10.186 8.996,9.754 8.996,9.32C8.996,6.95 10.946,5 13.316,5C13.317,5 13.319,5 13.32,5Z" style="fill:url(#_Linear5);"/>
                        </g>
                    </g>
                    <g transform="matrix(0.965926,-0.258819,0.258819,0.965926,697.269,992.256)">
                        <path d="M16.65,3.9C17.46,4.71 17.915,5.809 17.915,6.954C17.915,8.55 17.03,10.022 15.62,10.77C13.35,11.97 11.92,12.87 11.35,13.44C10.83,13.96 10.17,14.84 9.37,16.06C8.718,17.051 7.608,17.649 6.421,17.649C5.488,17.649 4.591,17.279 3.93,16.62C3.271,15.959 2.901,15.062 2.901,14.129C2.901,12.942 3.499,11.832 4.49,11.18C5.72,10.38 6.59,9.72 7.11,9.2C7.69,8.62 8.58,7.2 9.78,4.93C10.528,3.52 12,2.635 13.596,2.635C14.741,2.635 15.84,3.09 16.65,3.9Z" style="fill:white;fill-opacity:0.6;"/>
                        <g transform="matrix(0.707107,0.707107,-0.707107,0.707107,13.8017,-5.32028)">
                            <path d="M13.32,5C13.321,5 13.323,5 13.324,5C15.694,5 17.644,6.95 17.644,9.32C17.644,9.754 17.579,10.186 17.45,10.6C16.7,13.05 16.32,14.68 16.32,15.5C16.32,16.23 16.47,17.31 16.77,18.75C16.819,18.987 16.844,19.228 16.844,19.47C16.844,21.404 15.254,22.997 13.32,23C11.386,22.997 9.796,21.404 9.796,19.47C9.796,19.228 9.821,18.987 9.87,18.75C10.17,17.31 10.32,16.23 10.32,15.5C10.32,14.68 9.95,13.05 9.19,10.6C9.061,10.186 8.996,9.754 8.996,9.32C8.996,6.95 10.946,5 13.316,5C13.317,5 13.319,5 13.32,5Z" style="fill:url(#_Linear6);"/>
                        </g>
                    </g>
                    <g transform="matrix(0.965926,-0.258819,0.258819,0.965926,664.269,999.256)">
                        <path d="M16.65,3.9C17.46,4.71 17.915,5.809 17.915,6.954C17.915,8.55 17.03,10.022 15.62,10.77C13.35,11.97 11.92,12.87 11.35,13.44C10.83,13.96 10.17,14.84 9.37,16.06C8.718,17.051 7.608,17.649 6.421,17.649C5.488,17.649 4.591,17.279 3.93,16.62C3.271,15.959 2.901,15.062 2.901,14.129C2.901,12.942 3.499,11.832 4.49,11.18C5.72,10.38 6.59,9.72 7.11,9.2C7.69,8.62 8.58,7.2 9.78,4.93C10.528,3.52 12,2.635 13.596,2.635C14.741,2.635 15.84,3.09 16.65,3.9Z" style="fill:white;fill-opacity:0.6;"/>
                        <g transform="matrix(0.707107,0.707107,-0.707107,0.707107,13.8017,-5.32028)">
                            <path d="M13.32,5C13.321,5 13.323,5 13.324,5C15.694,5 17.644,6.95 17.644,9.32C17.644,9.754 17.579,10.186 17.45,10.6C16.7,13.05 16.32,14.68 16.32,15.5C16.32,16.23 16.47,17.31 16.77,18.75C16.819,18.987 16.844,19.228 16.844,19.47C16.844,21.404 15.254,22.997 13.32,23C11.386,22.997 9.796,21.404 9.796,19.47C9.796,19.228 9.821,18.987 9.87,18.75C10.17,17.31 10.32,16.23 10.32,15.5C10.32,14.68 9.95,13.05 9.19,10.6C9.061,10.186 8.996,9.754 8.996,9.32C8.996,6.95 10.946,5 13.316,5C13.317,5 13.319,5 13.32,5Z" style="fill:url(#_Linear7);"/>
                        </g>
                    </g>
                    <g transform="matrix(0.866025,-0.5,0.5,0.866025,708.84,911.742)">
                        <path d="M16.55,3.4C17.364,4.21 17.821,5.312 17.821,6.461C17.821,8.06 16.934,9.533 15.52,10.28C13.25,11.48 11.82,12.38 11.25,12.95C10.73,13.47 10.07,14.34 9.27,15.57C8.618,16.561 7.508,17.159 6.321,17.159C5.388,17.159 4.491,16.789 3.83,16.13C3.171,15.469 2.801,14.572 2.801,13.639C2.801,12.452 3.399,11.342 4.39,10.69C5.62,9.89 6.49,9.23 7.01,8.71C7.59,8.13 8.48,6.71 9.68,4.44C10.427,3.026 11.9,2.139 13.499,2.139C14.643,2.139 15.74,2.593 16.55,3.4Z" style="fill:white;fill-opacity:0.6;"/>
                        <g transform="matrix(0.707107,0.707107,-0.707107,0.707107,14.2159,-4.32028)">
                            <path d="M12.32,6C12.321,6 12.323,6 12.324,6C14.694,6 16.644,7.95 16.644,10.32C16.644,10.754 16.579,11.186 16.45,11.6C15.7,14.05 15.32,15.68 15.32,16.5C15.32,17.23 15.47,18.31 15.77,19.75C15.819,19.987 15.844,20.228 15.844,20.47C15.844,22.404 14.254,23.997 12.32,24C10.386,23.997 8.796,22.404 8.796,20.47C8.796,20.228 8.821,19.987 8.87,19.75C9.17,18.31 9.32,17.23 9.32,16.5C9.32,15.68 8.95,14.05 8.19,11.6C8.061,11.186 7.996,10.754 7.996,10.32C7.996,7.95 9.946,6 12.316,6C12.317,6 12.319,6 12.32,6Z" style="fill:url(#_Linear8);"/>
                        </g>
                    </g>
                    <g transform="matrix(0.866025,-0.5,0.5,0.866025,739.84,898.742)">
                        <path d="M16.55,3.4C17.364,4.21 17.821,5.312 17.821,6.461C17.821,8.06 16.934,9.533 15.52,10.28C13.25,11.48 11.82,12.38 11.25,12.95C10.73,13.47 10.07,14.34 9.27,15.57C8.618,16.561 7.508,17.159 6.321,17.159C5.388,17.159 4.491,16.789 3.83,16.13C3.171,15.469 2.801,14.572 2.801,13.639C2.801,12.452 3.399,11.342 4.39,10.69C5.62,9.89 6.49,9.23 7.01,8.71C7.59,8.13 8.48,6.71 9.68,4.44C10.427,3.026 11.9,2.139 13.499,2.139C14.643,2.139 15.74,2.593 16.55,3.4Z" style="fill:white;fill-opacity:0.6;"/>
                        <g transform="matrix(0.707107,0.707107,-0.707107,0.707107,14.2159,-4.32028)">
                            <path d="M12.32,6C12.321,6 12.323,6 12.324,6C14.694,6 16.644,7.95 16.644,10.32C16.644,10.754 16.579,11.186 16.45,11.6C15.7,14.05 15.32,15.68 15.32,16.5C15.32,17.23 15.47,18.31 15.77,19.75C15.819,19.987 15.844,20.228 15.844,20.47C15.844,22.404 14.254,23.997 12.32,24C10.386,23.997 8.796,22.404 8.796,20.47C8.796,20.228 8.821,19.987 8.87,19.75C9.17,18.31 9.32,17.23 9.32,16.5C9.32,15.68 8.95,14.05 8.19,11.6C8.061,11.186 7.996,10.754 7.996,10.32C7.996,7.95 9.946,6 12.316,6C12.317,6 12.319,6 12.32,6Z" style="fill:url(#_Linear9);"/>
                        </g>
                    </g>
                    <g transform="matrix(0.707107,-0.707107,0.707107,0.707107,701.151,874.464)">
                        <path d="M16.93,3.22C17.744,4.03 18.201,5.132 18.201,6.281C18.201,7.88 17.314,9.353 15.9,10.1C13.63,11.3 12.2,12.19 11.63,12.77C11.11,13.29 10.45,14.16 9.65,15.38C8.999,16.378 7.885,16.981 6.693,16.981C5.759,16.981 4.862,16.61 4.2,15.95C3.54,15.288 3.169,14.391 3.169,13.457C3.169,12.265 3.772,11.151 4.77,10.5C5.99,9.7 6.87,9.04 7.38,8.53C7.96,7.95 8.85,6.53 10.05,4.26C10.796,2.843 12.271,1.952 13.873,1.952C15.019,1.952 16.12,2.409 16.93,3.22Z" style="fill:white;fill-opacity:0.6;"/>
                        <g transform="matrix(0.707107,0.707107,-0.707107,0.707107,13.6301,-2.90607)">
                            <path d="M10.32,6C10.321,6 10.323,6 10.324,6C12.694,6 14.644,7.95 14.644,10.32C14.644,10.754 14.579,11.186 14.45,11.6C13.7,14.05 13.32,15.68 13.32,16.5C13.32,17.23 13.47,18.31 13.77,19.75C13.819,19.987 13.844,20.228 13.844,20.47C13.844,22.404 12.254,23.997 10.32,24C8.386,23.997 6.796,22.404 6.796,20.47C6.796,20.228 6.821,19.987 6.87,19.75C7.17,18.31 7.32,17.23 7.32,16.5C7.32,15.68 6.95,14.05 6.19,11.6C6.061,11.186 5.996,10.754 5.996,10.32C5.996,7.95 7.946,6 10.316,6C10.317,6 10.319,6 10.32,6Z" style="fill:url(#_Linear10);"/>
                        </g>
                    </g>
                    <g transform="matrix(0.913545,-0.406737,0.406737,0.913545,733.841,859.88)">
                        <path d="M16.93,3.22C17.744,4.03 18.201,5.132 18.201,6.281C18.201,7.88 17.314,9.353 15.9,10.1C13.63,11.3 12.2,12.19 11.63,12.77C11.11,13.29 10.45,14.16 9.65,15.38C8.999,16.378 7.885,16.981 6.693,16.981C5.759,16.981 4.862,16.61 4.2,15.95C3.54,15.288 3.169,14.391 3.169,13.457C3.169,12.265 3.772,11.151 4.77,10.5C5.99,9.7 6.87,9.04 7.38,8.53C7.96,7.95 8.85,6.53 10.05,4.26C10.796,2.843 12.271,1.952 13.873,1.952C15.019,1.952 16.12,2.409 16.93,3.22Z" style="fill:white;fill-opacity:0.6;"/>
                        <g transform="matrix(0.707107,0.707107,-0.707107,0.707107,13.6301,-2.90607)">
                            <path d="M10.32,6C10.321,6 10.323,6 10.324,6C12.694,6 14.644,7.95 14.644,10.32C14.644,10.754 14.579,11.186 14.45,11.6C13.7,14.05 13.32,15.68 13.32,16.5C13.32,17.23 13.47,18.31 13.77,19.75C13.819,19.987 13.844,20.228 13.844,20.47C13.844,22.404 12.254,23.997 10.32,24C8.386,23.997 6.796,22.404 6.796,20.47C6.796,20.228 6.821,19.987 6.87,19.75C7.17,18.31 7.32,17.23 7.32,16.5C7.32,15.68 6.95,14.05 6.19,11.6C6.061,11.186 5.996,10.754 5.996,10.32C5.996,7.95 7.946,6 10.316,6C10.317,6 10.319,6 10.32,6Z" style="fill:url(#_Linear11);"/>
                        </g>
                    </g>
                    <g transform="matrix(0.642788,-0.766044,0.766044,0.642788,720.057,837.858)">
                        <path d="M16.93,3.22C17.744,4.03 18.201,5.132 18.201,6.281C18.201,7.88 17.314,9.353 15.9,10.1C13.63,11.3 12.2,12.19 11.63,12.77C11.11,13.29 10.45,14.16 9.65,15.38C8.999,16.378 7.885,16.981 6.693,16.981C5.759,16.981 4.862,16.61 4.2,15.95C3.54,15.288 3.169,14.391 3.169,13.457C3.169,12.265 3.772,11.151 4.77,10.5C5.99,9.7 6.87,9.04 7.38,8.53C7.96,7.95 8.85,6.53 10.05,4.26C10.796,2.843 12.271,1.952 13.873,1.952C15.019,1.952 16.12,2.409 16.93,3.22Z" style="fill:white;fill-opacity:0.6;"/>
                        <g transform="matrix(0.707107,0.707107,-0.707107,0.707107,13.6301,-2.90607)">
                            <path d="M10.32,6C10.321,6 10.323,6 10.324,6C12.694,6 14.644,7.95 14.644,10.32C14.644,10.754 14.579,11.186 14.45,11.6C13.7,14.05 13.32,15.68 13.32,16.5C13.32,17.23 13.47,18.31 13.77,19.75C13.819,19.987 13.844,20.228 13.844,20.47C13.844,22.404 12.254,23.997 10.32,24C8.386,23.997 6.796,22.404 6.796,20.47C6.796,20.228 6.821,19.987 6.87,19.75C7.17,18.31 7.32,17.23 7.32,16.5C7.32,15.68 6.95,14.05 6.19,11.6C6.061,11.186 5.996,10.754 5.996,10.32C5.996,7.95 7.946,6 10.316,6C10.317,6 10.319,6 10.32,6Z" style="fill:url(#_Linear12);"/>
                        </g>
                    </g>
                    <g transform="matrix(0.819152,-0.573576,0.573576,0.819152,744.967,807.329)">
                        <path d="M16.08,3.06C16.852,3.829 17.286,4.875 17.286,5.964C17.286,7.482 16.443,8.881 15.1,9.59C12.95,10.73 11.6,11.58 11.05,12.13C10.55,12.63 9.93,13.45 9.17,14.62C8.552,15.566 7.495,16.138 6.365,16.138C5.474,16.138 4.619,15.782 3.99,15.15C3.364,14.522 3.012,13.671 3.012,12.785C3.012,11.655 3.584,10.598 4.53,9.98C5.69,9.22 6.53,8.59 7.01,8.1C7.56,7.55 8.41,6.2 9.55,4.04C10.259,2.697 11.658,1.854 13.176,1.854C14.265,1.854 15.311,2.288 16.08,3.06Z" style="fill:white;fill-opacity:0.6;"/>
                        <g transform="matrix(0.707107,0.707107,-0.707107,0.707107,12.9487,-2.76087)">
                            <path d="M9.8,5.7C9.804,5.7 9.808,5.7 9.813,5.7C12.062,5.7 13.913,7.551 13.913,9.8C13.913,10.21 13.851,10.618 13.73,11.01C13.02,13.34 12.66,14.9 12.66,15.68C12.66,16.37 12.8,17.4 13.09,18.76C13.138,18.987 13.162,19.218 13.162,19.45C13.162,21.288 11.65,22.8 9.812,22.8C9.808,22.8 9.804,22.8 9.8,22.8C9.799,22.8 9.799,22.8 9.798,22.8C7.96,22.8 6.448,21.288 6.448,19.45C6.448,19.218 6.472,18.987 6.52,18.76C6.8,17.4 6.95,16.37 6.95,15.67C6.95,14.9 6.59,13.34 5.87,11.01C5.749,10.618 5.687,10.21 5.687,9.8C5.687,7.551 7.538,5.7 9.787,5.7C9.795,5.7 9.802,5.7 9.81,5.7L9.8,5.7Z" style="fill:url(#_Linear13);"/>
                        </g>
                    </g>
                    <g transform="matrix(0.819152,-0.573576,0.573576,0.819152,725.235,783.929)">
                        <path d="M15.24,2.9C15.97,3.629 16.38,4.62 16.38,5.652C16.38,7.091 15.582,8.417 14.31,9.09C12.27,10.17 10.98,10.97 10.46,11.49C9.793,12.219 9.197,13.009 8.68,13.85C8.095,14.744 7.096,15.284 6.027,15.284C5.184,15.284 4.375,14.948 3.78,14.35C3.185,13.756 2.85,12.948 2.85,12.107C2.85,11.036 3.392,10.034 4.29,9.45C5.131,8.933 5.921,8.337 6.65,7.67C7.17,7.15 7.97,5.87 9.05,3.83C9.723,2.558 11.049,1.76 12.488,1.76C13.52,1.76 14.511,2.17 15.24,2.9Z" style="fill:white;fill-opacity:0.6;"/>
                        <g transform="matrix(0.707107,0.707107,-0.707107,0.707107,12.2669,-2.61496)">
                            <path d="M9.3,5.4C11.427,5.41 13.171,7.163 13.171,9.29C13.171,9.676 13.113,10.061 13,10.43C12.33,12.64 12,14.11 12,14.85C12,15.51 12.13,16.48 12.4,17.77C12.446,17.987 12.469,18.208 12.469,18.43C12.469,20.169 11.039,21.6 9.3,21.6C9.294,21.6 9.287,21.6 9.281,21.6C7.542,21.6 6.111,20.169 6.111,18.43C6.111,18.208 6.134,17.987 6.18,17.77C6.46,16.48 6.59,15.51 6.59,14.85C6.59,14.11 6.25,12.65 5.57,10.43C5.457,10.061 5.399,9.676 5.399,9.29C5.399,7.156 7.155,5.4 9.289,5.4C9.293,5.4 9.296,5.4 9.3,5.4Z" style="fill:url(#_Linear14);"/>
                        </g>
                    </g>
                    <g transform="matrix(0.819152,-0.573576,0.573576,0.819152,751.236,766.929)">
                        <path d="M15.24,2.9C15.97,3.629 16.38,4.62 16.38,5.652C16.38,7.091 15.582,8.417 14.31,9.09C12.27,10.17 10.98,10.97 10.46,11.49C9.793,12.219 9.197,13.009 8.68,13.85C8.095,14.744 7.096,15.284 6.027,15.284C5.184,15.284 4.375,14.948 3.78,14.35C3.185,13.756 2.85,12.948 2.85,12.107C2.85,11.036 3.392,10.034 4.29,9.45C5.131,8.933 5.921,8.337 6.65,7.67C7.17,7.15 7.97,5.87 9.05,3.83C9.723,2.558 11.049,1.76 12.488,1.76C13.52,1.76 14.511,2.17 15.24,2.9Z" style="fill:white;fill-opacity:0.6;"/>
                        <g transform="matrix(0.707107,0.707107,-0.707107,0.707107,12.2669,-2.61496)">
                            <path d="M9.3,5.4C11.427,5.41 13.171,7.163 13.171,9.29C13.171,9.676 13.113,10.061 13,10.43C12.33,12.64 12,14.11 12,14.85C12,15.51 12.13,16.48 12.4,17.77C12.446,17.987 12.469,18.208 12.469,18.43C12.469,20.169 11.039,21.6 9.3,21.6C9.294,21.6 9.287,21.6 9.281,21.6C7.542,21.6 6.111,20.169 6.111,18.43C6.111,18.208 6.134,17.987 6.18,17.77C6.46,16.48 6.59,15.51 6.59,14.85C6.59,14.11 6.25,12.65 5.57,10.43C5.457,10.061 5.399,9.676 5.399,9.29C5.399,7.156 7.155,5.4 9.289,5.4C9.293,5.4 9.296,5.4 9.3,5.4Z" style="fill:url(#_Linear15);"/>
                        </g>
                    </g>
                    <g transform="matrix(0.71934,-0.694658,0.694658,0.71934,733.772,744.141)">
                        <path d="M15.24,2.9C15.97,3.629 16.38,4.62 16.38,5.652C16.38,7.091 15.582,8.417 14.31,9.09C12.27,10.17 10.98,10.97 10.46,11.49C9.793,12.219 9.197,13.009 8.68,13.85C8.095,14.744 7.096,15.284 6.027,15.284C5.184,15.284 4.375,14.948 3.78,14.35C3.185,13.756 2.85,12.948 2.85,12.107C2.85,11.036 3.392,10.034 4.29,9.45C5.131,8.933 5.921,8.337 6.65,7.67C7.17,7.15 7.97,5.87 9.05,3.83C9.723,2.558 11.049,1.76 12.488,1.76C13.52,1.76 14.511,2.17 15.24,2.9Z" style="fill:white;fill-opacity:0.6;"/>
                        <g transform="matrix(0.707107,0.707107,-0.707107,0.707107,12.2669,-2.61496)">
                            <path d="M9.3,5.4C11.427,5.41 13.171,7.163 13.171,9.29C13.171,9.676 13.113,10.061 13,10.43C12.33,12.64 12,14.11 12,14.85C12,15.51 12.13,16.48 12.4,17.77C12.446,17.987 12.469,18.208 12.469,18.43C12.469,20.169 11.039,21.6 9.3,21.6C9.294,21.6 9.287,21.6 9.281,21.6C7.542,21.6 6.111,20.169 6.111,18.43C6.111,18.208 6.134,17.987 6.18,17.77C6.46,16.48 6.59,15.51 6.59,14.85C6.59,14.11 6.25,12.65 5.57,10.43C5.457,10.061 5.399,9.676 5.399,9.29C5.399,7.156 7.155,5.4 9.289,5.4C9.293,5.4 9.296,5.4 9.3,5.4Z" style="fill:url(#_Linear16);"/>
                        </g>
                    </g>
                    <g transform="matrix(0.882948,-0.469472,0.469472,0.882948,754.833,725.274)">
                        <path d="M15.24,2.9C15.97,3.629 16.38,4.62 16.38,5.652C16.38,7.091 15.582,8.417 14.31,9.09C12.27,10.17 10.98,10.97 10.46,11.49C9.793,12.219 9.197,13.009 8.68,13.85C8.095,14.744 7.096,15.284 6.027,15.284C5.184,15.284 4.375,14.948 3.78,14.35C3.185,13.756 2.85,12.948 2.85,12.107C2.85,11.036 3.392,10.034 4.29,9.45C5.131,8.933 5.921,8.337 6.65,7.67C7.17,7.15 7.97,5.87 9.05,3.83C9.723,2.558 11.049,1.76 12.488,1.76C13.52,1.76 14.511,2.17 15.24,2.9Z" style="fill:white;fill-opacity:0.6;"/>
                        <g transform="matrix(0.707107,0.707107,-0.707107,0.707107,12.2669,-2.61496)">
                            <path d="M9.3,5.4C11.427,5.41 13.171,7.163 13.171,9.29C13.171,9.676 13.113,10.061 13,10.43C12.33,12.64 12,14.11 12,14.85C12,15.51 12.13,16.48 12.4,17.77C12.446,17.987 12.469,18.208 12.469,18.43C12.469,20.169 11.039,21.6 9.3,21.6C9.294,21.6 9.287,21.6 9.281,21.6C7.542,21.6 6.111,20.169 6.111,18.43C6.111,18.208 6.134,17.987 6.18,17.77C6.46,16.48 6.59,15.51 6.59,14.85C6.59,14.11 6.25,12.65 5.57,10.43C5.457,10.061 5.399,9.676 5.399,9.29C5.399,7.156 7.155,5.4 9.289,5.4C9.293,5.4 9.296,5.4 9.3,5.4Z" style="fill:url(#_Linear17);"/>
                        </g>
                    </g>
                    <g transform="matrix(0.75471,-0.656059,0.656059,0.75471,730.462,711.434)">
                        <path d="M13.54,2.58C14.188,3.229 14.553,4.109 14.553,5.026C14.553,6.303 13.847,7.48 12.72,8.08C11.501,8.65 10.353,9.362 9.3,10.2C8.89,10.62 8.36,11.32 7.72,12.3C7.2,13.098 6.31,13.58 5.358,13.58C4.608,13.58 3.889,13.281 3.36,12.75C2.829,12.221 2.53,11.502 2.53,10.752C2.53,9.8 3.012,8.91 3.81,8.39C4.8,7.75 5.49,7.22 5.91,6.81C6.37,6.35 7.08,5.21 8.04,3.39C8.64,2.263 9.817,1.557 11.094,1.557C12.011,1.557 12.891,1.922 13.54,2.57L13.54,2.58Z" style="fill:white;fill-opacity:0.6;"/>
                        <g transform="matrix(0.707107,0.707107,-0.707107,0.707107,10.904,-2.32457)">
                            <path d="M8.26,4.8C10.155,4.805 11.711,6.365 11.711,8.26C11.711,8.602 11.66,8.943 11.56,9.27C10.96,11.24 10.66,12.54 10.66,13.2C10.66,13.79 10.78,14.65 11.02,15.8C11.06,15.991 11.08,16.185 11.08,16.38C11.08,17.927 9.807,19.2 8.26,19.2L8.26,19.2C6.713,19.2 5.44,17.927 5.44,16.38C5.44,16.185 5.46,15.991 5.5,15.8C5.74,14.65 5.86,13.79 5.86,13.2C5.86,12.54 5.56,11.24 4.96,9.27C4.86,8.943 4.809,8.602 4.809,8.26C4.809,6.365 6.365,4.805 8.26,4.8Z" style="fill:url(#_Linear18);"/>
                        </g>
                    </g>
                    <g transform="matrix(0.75471,-0.656059,0.656059,0.75471,740.037,685.471)">
                        <path d="M11.85,2.26C12.411,2.827 12.726,3.593 12.726,4.391C12.726,5.505 12.111,6.533 11.13,7.06C10.059,7.566 9.052,8.197 8.13,8.94C7.78,9.3 7.31,9.91 6.75,10.77C6.294,11.464 5.517,11.883 4.686,11.883C4.036,11.883 3.412,11.627 2.95,11.17C2.484,10.707 2.221,10.075 2.221,9.418C2.221,8.585 2.642,7.806 3.34,7.35C4.2,6.8 4.8,6.33 5.17,5.97C5.57,5.57 6.2,4.57 7.04,2.97C7.567,1.989 8.595,1.374 9.709,1.374C10.512,1.374 11.282,1.693 11.85,2.26Z" style="fill:white;fill-opacity:0.6;"/>
                        <g transform="matrix(0.707107,0.707107,-0.707107,0.707107,9.54107,-2.03417)">
                            <path d="M7.23,4.2C8.889,4.205 10.251,5.571 10.251,7.23C10.251,7.528 10.207,7.825 10.12,8.11C9.59,9.83 9.32,10.98 9.32,11.55C9.32,12.06 9.43,12.82 9.64,13.82C9.675,13.988 9.693,14.159 9.693,14.33C9.693,15.682 8.582,16.796 7.23,16.8C7.229,16.8 7.228,16.8 7.227,16.8C5.872,16.8 4.757,15.685 4.757,14.33C4.757,14.159 4.775,13.988 4.81,13.82C5.02,12.82 5.13,12.06 5.13,11.55C5.13,10.98 4.86,9.83 4.33,8.11C4.243,7.825 4.199,7.528 4.199,7.23C4.199,5.568 5.567,4.2 7.229,4.2C7.23,4.2 7.23,4.2 7.23,4.2Z" style="fill:url(#_Linear19);"/>
                        </g>
                    </g>
                    <g transform="matrix(0.913545,-0.406737,0.406737,0.913545,754.685,694.851)">
                        <path d="M13.54,2.58C14.188,3.229 14.553,4.109 14.553,5.026C14.553,6.303 13.847,7.48 12.72,8.08C11.501,8.65 10.353,9.362 9.3,10.2C8.89,10.62 8.36,11.32 7.72,12.3C7.2,13.098 6.31,13.58 5.358,13.58C4.608,13.58 3.889,13.281 3.36,12.75C2.829,12.221 2.53,11.502 2.53,10.752C2.53,9.8 3.012,8.91 3.81,8.39C4.8,7.75 5.49,7.22 5.91,6.81C6.37,6.35 7.08,5.21 8.04,3.39C8.64,2.263 9.817,1.557 11.094,1.557C12.011,1.557 12.891,1.922 13.54,2.57L13.54,2.58Z" style="fill:white;fill-opacity:0.6;"/>
                        <g transform="matrix(0.707107,0.707107,-0.707107,0.707107,10.904,-2.32457)">
                            <path d="M8.26,4.8C10.155,4.805 11.711,6.365 11.711,8.26C11.711,8.602 11.66,8.943 11.56,9.27C10.96,11.24 10.66,12.54 10.66,13.2C10.66,13.79 10.78,14.65 11.02,15.8C11.06,15.991 11.08,16.185 11.08,16.38C11.08,17.927 9.807,19.2 8.26,19.2L8.26,19.2C6.713,19.2 5.44,17.927 5.44,16.38C5.44,16.185 5.46,15.991 5.5,15.8C5.74,14.65 5.86,13.79 5.86,13.2C5.86,12.54 5.56,11.24 4.96,9.27C4.86,8.943 4.809,8.602 4.809,8.26C4.809,6.365 6.365,4.805 8.26,4.8Z" style="fill:url(#_Linear20);"/>
                        </g>
                    </g>
                </g>
            </g>
        </g>
    </g>
    <defs>
        <linearGradient id="_Linear1" x1="0" y1="0" x2="1" y2="0" gradientUnits="userSpaceOnUse" gradientTransform="matrix(-30.4128,343.271,-343.271,-30.4128,541.082,332.824)"><stop offset="0" style="stop-color:white;stop-opacity:1"/><stop offset="0.22" style="stop-color:rgb(248,230,179);stop-opacity:1"/><stop offset="1" style="stop-color:rgb(249,217,137);stop-opacity:1"/></linearGradient>
        <linearGradient id="_Linear2" x1="0" y1="0" x2="1" y2="0" gradientUnits="userSpaceOnUse" gradientTransform="matrix(-161.424,431.024,-431.024,-161.424,600.52,346.976)"><stop offset="0" style="stop-color:rgb(206,64,20);stop-opacity:1"/><stop offset="1" style="stop-color:rgb(255,213,110);stop-opacity:1"/></linearGradient>
        <linearGradient id="_Linear3" x1="0" y1="0" x2="1" y2="0" gradientUnits="userSpaceOnUse" gradientTransform="matrix(171.062,291.889,-291.889,171.062,264.1,518.109)"><stop offset="0" style="stop-color:rgb(162,73,30);stop-opacity:1"/><stop offset="1" style="stop-color:rgb(244,179,90);stop-opacity:1"/></linearGradient>
        <linearGradient id="_Linear4" x1="0" y1="0" x2="1" y2="0" gradientUnits="userSpaceOnUse" gradientTransform="matrix(1.10218e-15,18,-18,1.10218e-15,700.32,962)"><stop offset="0" style="stop-color:rgb(178,153,89);stop-opacity:1"/><stop offset="1" style="stop-color:rgb(206,173,91);stop-opacity:1"/></linearGradient>
        <linearGradient id="_Linear5" x1="0" y1="0" x2="1" y2="0" gradientUnits="userSpaceOnUse" gradientTransform="matrix(1.10218e-15,18,-18,1.10218e-15,13.32,5)"><stop offset="0" style="stop-color:rgb(178,153,89);stop-opacity:1"/><stop offset="1" style="stop-color:rgb(206,173,91);stop-opacity:1"/></linearGradient>
        <linearGradient id="_Linear6" x1="0" y1="0" x2="1" y2="0" gradientUnits="userSpaceOnUse" gradientTransform="matrix(1.10218e-15,18,-18,1.10218e-15,13.32,5)"><stop offset="0" style="stop-color:rgb(178,153,89);stop-opacity:1"/><stop offset="1" style="stop-color:rgb(206,173,91);stop-opacity:1"/></linearGradient>
        <linearGradient id="_Linear7" x1="0" y1="0" x2="1" y2="0" gradientUnits="userSpaceOnUse" gradientTransform="matrix(1.10218e-15,18,-18,1.10218e-15,13.32,5)"><stop offset="0" style="stop-color:rgb(178,153,89);stop-opacity:1"/><stop offset="1" style="stop-color:rgb(206,173,91);stop-opacity:1"/></linearGradient>
        <linearGradient id="_Linear8" x1="0" y1="0" x2="1" y2="0" gradientUnits="userSpaceOnUse" gradientTransform="matrix(1.10218e-15,18,-18,1.10218e-15,12.32,6)"><stop offset="0" style="stop-color:rgb(178,153,89);stop-opacity:1"/><stop offset="1" style="stop-color:rgb(206,173,91);stop-opacity:1"/></linearGradient>
        <linearGradient id="_Linear9" x1="0" y1="0" x2="1" y2="0" gradientUnits="userSpaceOnUse" gradientTransform="matrix(1.10218e-15,18,-18,1.10218e-15,12.32,6)"><stop offset="0" style="stop-color:rgb(178,153,89);stop-opacity:1"/><stop offset="1" style="stop-color:rgb(206,173,91);stop-opacity:1"/></linearGradient>
        <linearGradient id="_Linear10" x1="0" y1="0" x2="1" y2="0" gradientUnits="userSpaceOnUse" gradientTransform="matrix(1.10218e-15,18,-18,1.10218e-15,10.32,6)"><stop offset="0" style="stop-color:rgb(178,153,89);stop-opacity:1"/><stop offset="1" style="stop-color:rgb(206,173,91);stop-opacity:1"/></linearGradient>
        <linearGradient id="_Linear11" x1="0" y1="0" x2="1" y2="0" gradientUnits="userSpaceOnUse" gradientTransform="matrix(1.10218e-15,18,-18,1.10218e-15,10.32,6)"><stop offset="0" style="stop-color:rgb(178,153,89);stop-opacity:1"/><stop offset="1" style="stop-color:rgb(206,173,91);stop-opacity:1"/></linearGradient>
        <linearGradient id="_Linear12" x1="0" y1="0" x2="1" y2="0" gradientUnits="userSpaceOnUse" gradientTransform="matrix(1.10218e-15,18,-18,1.10218e-15,10.32,6)"><stop offset="0" style="stop-color:rgb(178,153,89);stop-opacity:1"/><stop offset="1" style="stop-color:rgb(206,173,91);stop-opacity:1"/></linearGradient>
        <linearGradient id="_Linear13" x1="0" y1="0" x2="1" y2="0" gradientUnits="userSpaceOnUse" gradientTransform="matrix(1.04708e-15,17.1001,-17.1001,1.04708e-15,9.79999,5.69994)"><stop offset="0" style="stop-color:rgb(178,153,89);stop-opacity:1"/><stop offset="1" style="stop-color:rgb(206,173,91);stop-opacity:1"/></linearGradient>
        <linearGradient id="_Linear14" x1="0" y1="0" x2="1" y2="0" gradientUnits="userSpaceOnUse" gradientTransform="matrix(9.91968e-16,16.2001,-16.2001,9.91968e-16,9.285,5.39999)"><stop offset="0" style="stop-color:rgb(178,153,89);stop-opacity:1"/><stop offset="1" style="stop-color:rgb(206,173,91);stop-opacity:1"/></linearGradient>
        <linearGradient id="_Linear15" x1="0" y1="0" x2="1" y2="0" gradientUnits="userSpaceOnUse" gradientTransform="matrix(9.91968e-16,16.2001,-16.2001,9.91968e-16,9.285,5.39999)"><stop offset="0" style="stop-color:rgb(178,153,89);stop-opacity:1"/><stop offset="1" style="stop-color:rgb(206,173,91);stop-opacity:1"/></linearGradient>
        <linearGradient id="_Linear16" x1="0" y1="0" x2="1" y2="0" gradientUnits="userSpaceOnUse" gradientTransform="matrix(9.91968e-16,16.2001,-16.2001,9.91968e-16,9.285,5.39999)"><stop offset="0" style="stop-color:rgb(178,153,89);stop-opacity:1"/><stop offset="1" style="stop-color:rgb(206,173,91);stop-opacity:1"/></linearGradient>
        <linearGradient id="_Linear17" x1="0" y1="0" x2="1" y2="0" gradientUnits="userSpaceOnUse" gradientTransform="matrix(9.91968e-16,16.2001,-16.2001,9.91968e-16,9.285,5.39999)"><stop offset="0" style="stop-color:rgb(178,153,89);stop-opacity:1"/><stop offset="1" style="stop-color:rgb(206,173,91);stop-opacity:1"/></linearGradient>
        <linearGradient id="_Linear18" x1="0" y1="0" x2="1" y2="0" gradientUnits="userSpaceOnUse" gradientTransform="matrix(8.81746e-16,14.4,-14.4,8.81746e-16,8.26,4.8)"><stop offset="0" style="stop-color:rgb(178,153,89);stop-opacity:1"/><stop offset="1" style="stop-color:rgb(206,173,91);stop-opacity:1"/></linearGradient>
        <linearGradient id="_Linear19" x1="0" y1="0" x2="1" y2="0" gradientUnits="userSpaceOnUse" gradientTransform="matrix(7.71528e-16,12.6,-12.6,7.71528e-16,7.225,4.2)"><stop offset="0" style="stop-color:rgb(178,153,89);stop-opacity:1"/><stop offset="1" style="stop-color:rgb(206,173,91);stop-opacity:1"/></linearGradient>
        <linearGradient id="_Linear20" x1="0" y1="0" x2="1" y2="0" gradientUnits="userSpaceOnUse" gradientTransform="matrix(8.81746e-16,14.4,-14.4,8.81746e-16,8.26,4.8)"><stop offset="0" style="stop-color:rgb(178,153,89);stop-opacity:1"/><stop offset="1" style="stop-color:rgb(206,173,91);stop-opacity:1"/></linearGradient>
    </defs>
</svg>
