<?xml version="1.0" encoding="UTF-8" standalone="no"?>
<!DOCTYPE svg PUBLIC "-//W3C//DTD SVG 1.1//EN" "http://www.w3.org/Graphics/SVG/1.1/DTD/svg11.dtd">
<svg width="100%" height="100%" viewBox="0 0 1024 319" version="1.1" xmlns="http://www.w3.org/2000/svg" xmlns:xlink="http://www.w3.org/1999/xlink" xml:space="preserve" xmlns:serif="http://www.serif.com/" style="fill-rule:evenodd;clip-rule:evenodd;stroke-linejoin:round;stroke-miterlimit:2;">
    <g transform="matrix(1,0,0,1,0,-705)">
        <g id="sand-front" transform="matrix(1,0,0,1,0,705)">
            <path d="M0,319L0,68.93C67.12,35.69 129.55,0 263,0C513,0 594.46,162.6 793,175C900.42,181.71 956,148.23 1024,116.08L1024,319L0,319Z" style="fill:url(#_Linear1);"/>
            <path d="M353.02,319L0,319L0,68.93C67.12,35.69 129.55,0 263,0C334.14,0 414.5,12.76 414.5,70.5C414.5,125 369,150.22 302,179.5C219.74,215.45 247.43,291.18 353.02,319Z" style="fill:url(#_Linear2);"/>
            <path d="M353.02,319L0,319L0,304.2L302,179.5C219.74,215.45 247.43,291.18 353.02,319Z" style="fill:url(#_Linear3);"/>
        </g>
    </g>
    <defs>
        <linearGradient id="_Linear1" x1="0" y1="0" x2="1" y2="0" gradientUnits="userSpaceOnUse" gradientTransform="matrix(3.9936,210.827,-210.827,3.9936,506.675,37.1954)"><stop offset="0" style="stop-color:rgb(185,201,247);stop-opacity:1"/><stop offset="1" style="stop-color:rgb(48,24,99);stop-opacity:1"/></linearGradient>
        <linearGradient id="_Linear2" x1="0" y1="0" x2="1" y2="0" gradientUnits="userSpaceOnUse" gradientTransform="matrix(-85.4284,261.931,-261.931,-85.4284,379.641,18.7891)"><stop offset="0" style="stop-color:rgb(45,49,115);stop-opacity:1"/><stop offset="1" style="stop-color:rgb(127,144,224);stop-opacity:1"/></linearGradient>
        <linearGradient id="_Linear3" x1="0" y1="0" x2="1" y2="0" gradientUnits="userSpaceOnUse" gradientTransform="matrix(6.67294e-15,108.977,-108.977,6.67294e-15,250.574,193.283)"><stop offset="0" style="stop-color:rgb(45,49,115);stop-opacity:1"/><stop offset="1" style="stop-color:rgb(127,144,224);stop-opacity:1"/></linearGradient>
    </defs>
</svg>
